<svg width="114" height="32" viewBox="0 0 114 32" fill="none" xmlns="http://www.w3.org/2000/svg">
<g clip-path="url(#clip0_522_167)">
<path d="M13.1797 20.2126C12.9455 20.0864 12.7182 19.9613 12.4975 19.8373C12.4572 19.8147 12.4235 19.7817 12.4001 19.7417C12.3767 19.7016 12.3644 19.656 12.3644 19.6094L12.3637 0.753837C12.3637 0.707317 12.3763 0.661665 12.4002 0.621765C12.4241 0.581865 12.4584 0.549219 12.4995 0.527321L13.429 0.0266372C13.4622 0.00882368 13.4994 -0.000332954 13.5372 9.25111e-06C13.5749 0.000351456 13.612 0.0101816 13.6451 0.0285956L14.8306 0.695086C14.8704 0.717454 14.9035 0.750043 14.9266 0.789507C14.9496 0.82897 14.9618 0.873887 14.9618 0.919643V19.4064C14.9618 19.4551 14.9491 19.5029 14.9249 19.5452C14.9008 19.5874 14.866 19.6226 14.824 19.6473C14.421 19.8849 14.0313 20.1145 13.6549 20.336C13.4865 20.4352 13.3213 20.289 13.1797 20.2126ZM14.6608 0.97056C14.6609 0.961411 14.6585 0.952418 14.6539 0.944502C14.6493 0.936587 14.6427 0.930035 14.6347 0.925518L13.5609 0.323653C13.5534 0.319382 13.5448 0.317082 13.5362 0.316968C13.5275 0.316854 13.5189 0.318929 13.5113 0.323L12.6881 0.762976C12.6799 0.767322 12.6731 0.7738 12.6682 0.781727C12.6634 0.789655 12.6608 0.798738 12.6607 0.808018V19.5579C12.6606 19.5672 12.6631 19.5764 12.6678 19.5844C12.6725 19.5925 12.6793 19.5991 12.6875 19.6036L13.5022 20.0514C13.51 20.0557 13.5188 20.0579 13.5277 20.0578C13.5366 20.0577 13.5454 20.0552 13.5531 20.0507L14.6354 19.4123C14.6431 19.4078 14.6495 19.4013 14.654 19.3935C14.6585 19.3857 14.6608 19.3769 14.6608 19.3679V0.97056Z" fill="black"/>
<path d="M14.6608 0.97056V19.3679C14.6608 19.3769 14.6585 19.3857 14.654 19.3935C14.6495 19.4013 14.6431 19.4078 14.6354 19.4123L13.5531 20.0507C13.5454 20.0552 13.5366 20.0577 13.5277 20.0578C13.5188 20.0579 13.51 20.0557 13.5022 20.0514L12.6875 19.6036C12.6793 19.5991 12.6725 19.5925 12.6678 19.5844C12.6631 19.5764 12.6606 19.5672 12.6607 19.5579V0.808018C12.6608 0.798738 12.6634 0.789655 12.6682 0.781727C12.6731 0.7738 12.6799 0.767322 12.6881 0.762976L13.5113 0.323C13.5189 0.318929 13.5275 0.316854 13.5362 0.316968C13.5448 0.317082 13.5534 0.319382 13.5609 0.323653L14.6347 0.925518C14.6427 0.930035 14.6493 0.936587 14.6539 0.944502C14.6585 0.952418 14.6609 0.961411 14.6608 0.97056Z" fill="#FAD883"/>
<path d="M8.20025 7.92138C8.16979 7.91442 8.14063 7.91899 8.11278 7.93509C6.79459 8.69624 5.47597 9.4589 4.15692 10.2231C4.14205 10.2316 4.1252 10.2361 4.10811 10.236C4.09102 10.2358 4.07429 10.2312 4.05965 10.2224L0.0809475 7.9005C0.0717754 7.89519 0.0639083 7.88792 0.0579222 7.87923C0.0519361 7.87053 0.0479822 7.86062 0.0463499 7.85023C0.0411277 7.81498 0.0581002 7.78604 0.0972671 7.76341C3.5705 5.74631 7.04613 3.72813 10.5242 1.70886C10.5459 1.69608 10.5708 1.68995 10.596 1.69123C10.6408 1.69384 10.6632 1.71778 10.6632 1.76304C10.6536 7.2216 10.6506 12.8294 10.6541 18.5865C10.6541 18.5995 10.6507 18.6122 10.6443 18.6235C10.6379 18.6347 10.6287 18.6441 10.6175 18.6507C10.6064 18.6573 10.5937 18.6608 10.5808 18.661C10.5678 18.6612 10.5551 18.6581 10.5437 18.6518L8.29229 17.3802C8.27586 17.3709 8.26218 17.3573 8.25267 17.3409C8.24315 17.3245 8.23813 17.3059 8.23811 17.2869V7.96773C8.23816 7.95699 8.23443 7.94653 8.22755 7.9381C8.22066 7.92967 8.21102 7.92377 8.20025 7.92138ZM8.5038 7.83326C8.52781 7.87872 8.54036 7.92891 8.54035 7.97948L8.5397 17.1452C8.5397 17.1665 8.54906 17.1824 8.56777 17.1929L10.314 18.1799C10.3186 18.1825 10.3239 18.1838 10.3293 18.1838C10.3346 18.1837 10.3399 18.1823 10.3445 18.1796C10.3491 18.1769 10.3529 18.173 10.3556 18.1684C10.3583 18.1637 10.3597 18.1584 10.3597 18.1531V2.18082C10.3596 2.17763 10.3587 2.1745 10.3571 2.17175C10.3555 2.169 10.3532 2.16671 10.3505 2.16513C10.3478 2.16354 10.3447 2.16271 10.3416 2.16272C10.3386 2.16272 10.3355 2.16356 10.3329 2.16515L0.593381 7.8189C0.590258 7.82066 0.587658 7.82322 0.58585 7.82632C0.584041 7.82941 0.583088 7.83294 0.583088 7.83652C0.583088 7.84011 0.584041 7.84363 0.58585 7.84673C0.587658 7.84982 0.590258 7.85239 0.593381 7.85415L4.07728 9.88822C4.09773 9.89997 4.11819 9.89997 4.13864 9.88822C5.40286 9.15754 6.68232 8.4175 7.977 7.66811C8.17349 7.55452 8.39805 7.63155 8.5038 7.83326Z" fill="black"/>
<path d="M19.182 7.97361C19.1724 7.99276 19.1676 8.01865 19.1676 8.05129C19.165 11.0837 19.1637 14.0998 19.1637 17.0995C19.1637 17.1226 19.1539 17.1398 19.1344 17.1511L16.9998 18.3992C16.9876 18.4063 16.9737 18.4101 16.9596 18.4101C16.9455 18.4102 16.9316 18.4065 16.9194 18.3995C16.9071 18.3925 16.8969 18.3824 16.8899 18.3702C16.8828 18.358 16.879 18.3441 16.879 18.33V1.99543C16.879 1.97816 16.885 1.96152 16.896 1.94843C16.9221 1.91622 16.9501 1.90861 16.9802 1.92558C20.3224 3.81386 23.7436 5.74501 27.2439 7.71902C27.2695 7.73338 27.2922 7.75101 27.3118 7.7719C27.3191 7.77982 27.3245 7.78929 27.3277 7.7996C27.3308 7.80992 27.3316 7.82081 27.33 7.83147C27.3284 7.84213 27.3243 7.85229 27.3182 7.86119C27.3122 7.87008 27.3041 7.8775 27.2948 7.88287L23.3089 10.1767C23.2802 10.1933 23.2512 10.1933 23.2221 10.1767L19.2799 7.94423C19.2716 7.93948 19.2624 7.93647 19.2529 7.93539C19.2434 7.9343 19.2338 7.93515 19.2247 7.9379C19.2155 7.94065 19.207 7.94523 19.1997 7.95137C19.1923 7.95751 19.1863 7.96507 19.182 7.97361ZM26.7876 7.80519L17.21 2.39689C17.1851 2.38296 17.1727 2.39014 17.1727 2.41843V17.9246C17.1727 17.9274 17.1734 17.9301 17.1748 17.9325C17.1762 17.9349 17.1781 17.9369 17.1805 17.9383C17.1829 17.9397 17.1856 17.9404 17.1884 17.9404C17.1911 17.9404 17.1939 17.9397 17.1962 17.9383L18.8243 16.9879C18.8547 16.9705 18.87 16.9444 18.87 16.9095C18.873 14.0147 18.8722 11.0802 18.8674 8.10612C18.8669 8.02344 18.8785 7.94728 18.902 7.87765C18.9751 7.65962 19.2421 7.57998 19.4385 7.69161C20.7128 8.41402 21.9779 9.13012 23.2338 9.83991C23.2547 9.85166 23.2754 9.85166 23.2958 9.83991L26.7876 7.83065C26.7898 7.82946 26.7917 7.82769 26.793 7.82551C26.7943 7.82333 26.7949 7.82083 26.7949 7.81825C26.7949 7.81566 26.7943 7.8131 26.793 7.81081C26.7917 7.80851 26.7898 7.80658 26.7876 7.80519Z" fill="black"/>
<path d="M8.5038 7.83326C8.39805 7.63155 8.17349 7.55452 7.977 7.66811C6.68232 8.4175 5.40286 9.15754 4.13864 9.88822C4.11819 9.89997 4.09773 9.89997 4.07728 9.88822L0.593381 7.85415C0.590258 7.85239 0.587658 7.84982 0.58585 7.84673C0.584041 7.84363 0.583088 7.84011 0.583088 7.83652C0.583088 7.83294 0.584041 7.82941 0.58585 7.82632C0.587658 7.82322 0.590258 7.82066 0.593381 7.8189L10.3329 2.16515C10.3355 2.16356 10.3386 2.16272 10.3416 2.16272C10.3447 2.16271 10.3478 2.16354 10.3505 2.16513C10.3532 2.16671 10.3555 2.169 10.3571 2.17175C10.3587 2.1745 10.3596 2.17763 10.3597 2.18082V18.1531C10.3597 18.1584 10.3583 18.1637 10.3556 18.1684C10.3529 18.173 10.3491 18.1769 10.3445 18.1796C10.3399 18.1823 10.3346 18.1837 10.3293 18.1838C10.3239 18.1838 10.3186 18.1825 10.314 18.1799L8.56777 17.1929C8.54906 17.1824 8.5397 17.1665 8.5397 17.1452L8.54035 7.97948C8.54036 7.92891 8.52781 7.87872 8.5038 7.83326Z" fill="#FAD883"/>
<path d="M17.21 2.39689L26.7876 7.80519C26.7898 7.80658 26.7917 7.80851 26.793 7.81081C26.7943 7.8131 26.7949 7.81566 26.7949 7.81825C26.7949 7.82083 26.7943 7.82333 26.793 7.82551C26.7917 7.82769 26.7898 7.82946 26.7876 7.83065L23.2958 9.83991C23.2754 9.85166 23.2547 9.85166 23.2338 9.83991C21.9779 9.13012 20.7128 8.41402 19.4385 7.69161C19.2421 7.57998 18.9751 7.65962 18.902 7.87765C18.8785 7.94728 18.8669 8.02344 18.8674 8.10612C18.8722 11.0802 18.873 14.0147 18.87 16.9095C18.87 16.9444 18.8547 16.9705 18.8243 16.9879L17.1962 17.9383C17.1939 17.9397 17.1911 17.9404 17.1884 17.9404C17.1856 17.9404 17.1829 17.9397 17.1805 17.9383C17.1781 17.9369 17.1762 17.9349 17.1748 17.9325C17.1734 17.9301 17.1727 17.9274 17.1727 17.9246V2.41843C17.1727 2.39014 17.1851 2.38296 17.21 2.39689Z" fill="#FAD883"/>
<path d="M4.22089 21.6944C4.22133 21.7062 4.23221 21.7184 4.25353 21.731L13.6575 27.1882C13.6784 27.2004 13.6888 27.2185 13.6888 27.2424V31.9C13.6888 31.9163 13.6843 31.9323 13.6758 31.9464C13.6475 31.9916 13.6149 32.0036 13.5779 31.9823C9.10936 29.3838 4.64825 26.7896 0.194532 24.1998C0.165374 24.1828 0.150578 24.1574 0.150142 24.1234L2.52289e-06 8.29869C-0.000113249 8.28368 0.00375734 8.2689 0.0112192 8.25587C0.0186811 8.24284 0.0294671 8.23202 0.042476 8.22452C0.055485 8.21702 0.0702511 8.21311 0.0852671 8.21318C0.100283 8.21325 0.115011 8.2173 0.127948 8.22493L4.05835 10.5377C4.06612 10.5423 4.0726 10.5488 4.07717 10.5567C4.08174 10.5646 4.08425 10.5736 4.08446 10.5828L4.22089 21.6944ZM13.3631 27.3625C10.2885 25.577 7.22891 23.8012 4.18434 22.0352C4.02767 21.9445 3.92518 21.855 3.92257 21.6768C3.87862 18.0308 3.83379 14.3911 3.7881 10.7577C3.7881 10.7474 3.78539 10.7373 3.78024 10.7283C3.77508 10.7194 3.76766 10.712 3.75872 10.7068L0.320519 8.68383C0.318549 8.6827 0.316317 8.68209 0.314043 8.68208C0.311768 8.68208 0.309531 8.68266 0.307553 8.68378C0.305574 8.6849 0.303922 8.68652 0.302762 8.68848C0.301601 8.69043 0.300972 8.69266 0.300935 8.69493L0.447158 23.9635C0.447158 23.9892 0.458256 24.0083 0.48045 24.021L13.354 31.5071C13.3762 31.5201 13.3873 31.5138 13.3873 31.4881V27.4043C13.3873 27.3856 13.3792 27.3717 13.3631 27.3625Z" fill="black"/>
<path d="M23.3983 21.56C23.4057 21.5556 23.4118 21.5494 23.416 21.5419C23.4202 21.5345 23.4225 21.5261 23.4225 21.5175L23.4055 10.6383C23.4055 10.6231 23.4095 10.6083 23.4169 10.5953C23.4244 10.5822 23.435 10.5714 23.4479 10.5638L27.4077 8.23864C27.4199 8.23152 27.4339 8.22788 27.448 8.22811C27.4622 8.22834 27.476 8.23243 27.488 8.23994C27.5146 8.25648 27.5278 8.27998 27.5278 8.31044C27.5278 13.1754 27.5278 18.355 27.5278 23.8493C27.5278 23.8642 27.5239 23.8789 27.5165 23.8919C27.5091 23.905 27.4984 23.9159 27.4854 23.9237L13.9833 31.9875C13.9721 31.9942 13.9595 31.9984 13.9465 31.9996C13.9335 32.0008 13.9204 31.9992 13.9082 31.9947C13.8755 31.9829 13.8592 31.9631 13.8592 31.9353C13.8662 30.4213 13.874 28.8742 13.8827 27.294C13.8827 27.2869 13.8844 27.28 13.8876 27.274C13.8908 27.2681 13.8954 27.2632 13.901 27.2601L23.3983 21.56ZM14.1967 31.5129L27.2001 23.7468C27.2081 23.742 27.2147 23.7353 27.2193 23.7273C27.2239 23.7193 27.2263 23.7103 27.2262 23.7011V8.73345C27.2262 8.70472 27.2138 8.69754 27.189 8.7119L23.7391 10.7394C23.7191 10.7512 23.7091 10.7688 23.7091 10.7923C23.7095 14.202 23.713 17.7357 23.7195 21.3935C23.7195 21.5867 23.6947 21.729 23.5328 21.8256C20.3973 23.7074 17.2889 25.5735 14.2078 27.4239C14.1993 27.4291 14.1922 27.4364 14.1873 27.4452C14.1824 27.454 14.1798 27.464 14.1797 27.4742L14.1595 31.492C14.1595 31.5208 14.1719 31.5277 14.1967 31.5129Z" fill="black"/>
<path d="M13.3631 27.3625C13.3792 27.3717 13.3873 27.3856 13.3873 27.4043V31.4881C13.3873 31.5138 13.3762 31.5201 13.354 31.5071L0.48045 24.021C0.458256 24.0083 0.447158 23.9892 0.447158 23.9635L0.300935 8.69493C0.300972 8.69266 0.301601 8.69043 0.302762 8.68848C0.303922 8.68652 0.305574 8.6849 0.307553 8.68378C0.309531 8.68266 0.311768 8.68208 0.314043 8.68208C0.316317 8.68209 0.318549 8.6827 0.320519 8.68383L3.75872 10.7068C3.76766 10.712 3.77508 10.7194 3.78024 10.7283C3.78539 10.7373 3.7881 10.7474 3.7881 10.7577C3.83379 14.3911 3.87862 18.0308 3.92257 21.6768C3.92518 21.855 4.02767 21.9445 4.18434 22.0352C7.22891 23.8012 10.2885 25.577 13.3631 27.3625Z" fill="#B1BEFF"/>
<path d="M27.2001 23.7468L14.1967 31.5129C14.1719 31.5277 14.1595 31.5208 14.1595 31.492L14.1797 27.4742C14.1798 27.464 14.1824 27.454 14.1873 27.4452C14.1922 27.4364 14.1993 27.4291 14.2078 27.4239C17.2889 25.5735 20.3973 23.7074 23.5328 21.8256C23.6947 21.729 23.7195 21.5867 23.7195 21.3935C23.713 17.7357 23.7095 14.202 23.7091 10.7923C23.7091 10.7688 23.7191 10.7512 23.7391 10.7394L27.189 8.7119C27.2138 8.69754 27.2262 8.70472 27.2262 8.73345V23.7011C27.2263 23.7103 27.2239 23.7193 27.2193 23.7273C27.2147 23.7353 27.2081 23.742 27.2001 23.7468Z" fill="#B1BEFF"/>
<path d="M13.6849 25.6966L13.7607 25.6908C13.7678 25.6903 13.7744 25.6871 13.7792 25.6819C13.7841 25.6767 13.7868 25.6698 13.7868 25.6627V22.9021C13.7868 22.8971 13.7882 22.8923 13.7907 22.8881C13.7932 22.8838 13.7968 22.8803 13.8011 22.8779L20.1142 19.3372C20.1185 19.3348 20.1221 19.3313 20.1246 19.3271C20.1271 19.3228 20.1285 19.318 20.1285 19.3131L20.1266 12.4785C20.1265 12.4734 20.1278 12.4684 20.1304 12.4641C20.1329 12.4597 20.1365 12.4561 20.1409 12.4537L22.8069 10.9966C22.8112 10.9942 22.8161 10.993 22.821 10.9931C22.8259 10.9931 22.8307 10.9945 22.8349 10.997C22.8392 10.9995 22.8427 11.0031 22.8451 11.0074C22.8475 11.0117 22.8487 11.0165 22.8487 11.0214L22.8422 20.7388C22.8421 20.7437 22.8407 20.7485 22.8382 20.7528C22.8357 20.757 22.8321 20.7605 22.8278 20.7629L13.8018 25.8546C13.7976 25.857 13.7929 25.8582 13.7881 25.8582C13.7833 25.8582 13.7785 25.857 13.7744 25.8546L4.82472 20.9444C4.82041 20.942 4.81682 20.9385 4.81429 20.9342C4.81177 20.93 4.81041 20.9252 4.81035 20.9202L4.69873 11.0045C4.69867 10.9996 4.69991 10.9947 4.70233 10.9904C4.70474 10.9861 4.70823 10.9825 4.71247 10.98C4.7167 10.9775 4.72152 10.9762 4.72644 10.9761C4.73136 10.976 4.73621 10.9773 4.74051 10.9797L7.37514 12.4537C7.37944 12.4561 7.38303 12.4596 7.38556 12.4638C7.38808 12.468 7.38944 12.4729 7.3895 12.4778L7.48154 19.3777C7.4816 19.3826 7.48296 19.3875 7.48548 19.3917C7.488 19.396 7.4916 19.3995 7.4959 19.4019L13.651 22.7852C13.6554 22.7877 13.659 22.7913 13.6616 22.7957C13.6641 22.8 13.6654 22.805 13.6653 22.81L13.6542 25.6686C13.6542 25.6725 13.655 25.6764 13.6566 25.68C13.6582 25.6835 13.6605 25.6868 13.6634 25.6894C13.6663 25.692 13.6697 25.6941 13.6734 25.6953C13.6771 25.6966 13.681 25.697 13.6849 25.6966ZM11.7181 22.0593C10.2794 21.2734 8.8291 20.4768 7.3673 19.6695C7.24676 19.6029 7.18539 19.5024 7.18322 19.3679C7.15362 17.1672 7.12403 14.932 7.09444 12.6625C7.09444 12.655 7.09244 12.6477 7.08865 12.6412C7.08486 12.6348 7.07942 12.6295 7.0729 12.626L5.03622 11.4869C5.01315 11.4738 5.00184 11.4806 5.00227 11.5071L5.10606 20.7257C5.10606 20.7479 5.11586 20.7642 5.13544 20.7747L13.3168 25.2638C13.3472 25.2804 13.3625 25.2712 13.3625 25.2364V23.0117C13.3625 22.9848 13.3507 22.9647 13.3272 22.9517C12.8019 22.6562 12.2656 22.3587 11.7181 22.0593ZM20.4203 19.3855C20.3903 19.4854 20.3453 19.5494 20.2545 19.6003C18.1878 20.7605 16.1398 21.909 14.1105 23.0457C14.0905 23.057 14.0805 23.0742 14.0805 23.0973V25.3161C14.0805 25.3422 14.0918 25.3489 14.1145 25.3363L22.5053 20.6023C22.5288 20.5893 22.5406 20.5693 22.5406 20.5423L22.5523 11.513C22.5523 11.509 22.5513 11.5051 22.5493 11.5016C22.5474 11.4981 22.5446 11.4952 22.5412 11.4931C22.5379 11.4911 22.534 11.49 22.5301 11.4899C22.5262 11.4898 22.5224 11.4908 22.519 11.4928L20.4478 12.6253C20.4338 12.6327 20.4269 12.6443 20.4269 12.6599L20.4295 19.3196C20.4295 19.3418 20.4264 19.3638 20.4203 19.3855Z" fill="black"/>
<path d="M11.7181 22.0593C12.2656 22.3587 12.8019 22.6562 13.3272 22.9517C13.3507 22.9647 13.3625 22.9848 13.3625 23.0117V25.2364C13.3625 25.2712 13.3472 25.2804 13.3168 25.2638L5.13544 20.7747C5.11586 20.7642 5.10606 20.7479 5.10606 20.7257L5.00227 11.5071C5.00184 11.4806 5.01315 11.4738 5.03622 11.4869L7.0729 12.626C7.07942 12.6295 7.08486 12.6348 7.08865 12.6412C7.09244 12.6477 7.09444 12.655 7.09444 12.6625C7.12403 14.932 7.15362 17.1672 7.18322 19.3679C7.18539 19.5024 7.24676 19.6029 7.3673 19.6695C8.8291 20.4768 10.2794 21.2734 11.7181 22.0593Z" fill="#B1BEFF"/>
<path d="M20.4203 19.3855C20.4264 19.3638 20.4295 19.3418 20.4295 19.3196L20.4269 12.6599C20.4269 12.6443 20.4338 12.6327 20.4478 12.6253L22.519 11.4928C22.5224 11.4908 22.5262 11.4898 22.5301 11.4899C22.534 11.49 22.5379 11.4911 22.5412 11.4931C22.5446 11.4952 22.5474 11.4981 22.5493 11.5016C22.5513 11.5051 22.5523 11.509 22.5523 11.513L22.5406 20.5423C22.5406 20.5693 22.5288 20.5893 22.5053 20.6023L14.1145 25.3363C14.0918 25.3489 14.0805 25.3422 14.0805 25.3161V23.0973C14.0805 23.0742 14.0905 23.057 14.1105 23.0457C16.1398 21.909 18.1878 20.7605 20.2545 19.6003C20.3453 19.5494 20.3903 19.4854 20.4203 19.3855Z" fill="#B1BEFF"/>
</g>
<mask id="path-2-outside-1_522_167" maskUnits="userSpaceOnUse" x="36" y="9.5" width="77" height="14" fill="black">
<rect fill="white" x="36" y="9.5" width="77" height="14"/>
<path d="M43.68 22.708H43.216C37.632 22.708 36.992 20.18 36.992 18.756V18.58H40.576C40.624 19.108 40.848 20.292 43.376 20.292H43.488C45.968 20.292 46.288 19.556 46.288 18.868C46.288 18.148 45.824 17.716 43.856 17.636L42.272 17.588C38.368 17.46 37.12 15.908 37.12 14.116V13.972C37.12 12.116 38.112 10.452 43.04 10.452H43.584C48.848 10.452 49.568 12.372 49.568 13.94V14.116H46.032C45.952 13.588 45.664 12.804 43.36 12.804H43.2C41.088 12.804 40.592 13.204 40.592 13.86C40.592 14.468 41.024 14.916 42.896 14.996L44.544 15.06C48.784 15.236 49.808 16.612 49.808 18.548V18.74C49.808 20.484 49.008 22.708 43.68 22.708ZM59.2129 22.676H58.9569C53.7089 22.676 52.0609 19.396 52.0609 16.724V16.292C52.0609 13.764 53.5969 10.436 59.0209 10.436H59.5649C64.7489 10.436 66.3969 12.692 66.3969 14.66V14.692H62.9889C62.8609 14.388 62.3969 13.124 59.3089 13.124C56.3809 13.124 55.4849 14.772 55.4849 16.372V16.58C55.4849 18.132 56.4769 19.988 59.4209 19.988C62.2369 19.988 62.8609 18.484 62.9089 18.132H59.6769V16.004H66.5409V22.5H63.9169C63.8689 22.068 63.6929 21.236 63.5169 20.852C63.2609 21.188 62.0129 22.676 59.2129 22.676ZM69.612 10.596H80.508V13.188H72.86V15.124H80.268V17.812H72.86V19.876H80.604V22.5H69.612V10.596ZM91.861 17.844L89.701 12.996L87.605 17.844H91.861ZM93.941 22.5L92.965 20.292H86.533L85.573 22.5H82.261L87.541 10.596H91.957L97.477 22.5H93.941ZM107.503 18.692H102.735V22.5H99.4395V10.596H107.503C111.263 10.596 112.431 12.244 112.431 14.548V14.724C112.431 16.98 111.215 18.692 107.503 18.692ZM102.735 13.252V16.036H107.263C108.479 16.036 109.007 15.524 109.007 14.676V14.612C109.007 13.78 108.479 13.252 107.263 13.252H102.735Z"/>
</mask>
<path d="M43.68 22.708H43.216C37.632 22.708 36.992 20.18 36.992 18.756V18.58H40.576C40.624 19.108 40.848 20.292 43.376 20.292H43.488C45.968 20.292 46.288 19.556 46.288 18.868C46.288 18.148 45.824 17.716 43.856 17.636L42.272 17.588C38.368 17.46 37.12 15.908 37.12 14.116V13.972C37.12 12.116 38.112 10.452 43.04 10.452H43.584C48.848 10.452 49.568 12.372 49.568 13.94V14.116H46.032C45.952 13.588 45.664 12.804 43.36 12.804H43.2C41.088 12.804 40.592 13.204 40.592 13.86C40.592 14.468 41.024 14.916 42.896 14.996L44.544 15.06C48.784 15.236 49.808 16.612 49.808 18.548V18.74C49.808 20.484 49.008 22.708 43.68 22.708ZM59.2129 22.676H58.9569C53.7089 22.676 52.0609 19.396 52.0609 16.724V16.292C52.0609 13.764 53.5969 10.436 59.0209 10.436H59.5649C64.7489 10.436 66.3969 12.692 66.3969 14.66V14.692H62.9889C62.8609 14.388 62.3969 13.124 59.3089 13.124C56.3809 13.124 55.4849 14.772 55.4849 16.372V16.58C55.4849 18.132 56.4769 19.988 59.4209 19.988C62.2369 19.988 62.8609 18.484 62.9089 18.132H59.6769V16.004H66.5409V22.5H63.9169C63.8689 22.068 63.6929 21.236 63.5169 20.852C63.2609 21.188 62.0129 22.676 59.2129 22.676ZM69.612 10.596H80.508V13.188H72.86V15.124H80.268V17.812H72.86V19.876H80.604V22.5H69.612V10.596ZM91.861 17.844L89.701 12.996L87.605 17.844H91.861ZM93.941 22.5L92.965 20.292H86.533L85.573 22.5H82.261L87.541 10.596H91.957L97.477 22.5H93.941ZM107.503 18.692H102.735V22.5H99.4395V10.596H107.503C111.263 10.596 112.431 12.244 112.431 14.548V14.724C112.431 16.98 111.215 18.692 107.503 18.692ZM102.735 13.252V16.036H107.263C108.479 16.036 109.007 15.524 109.007 14.676V14.612C109.007 13.78 108.479 13.252 107.263 13.252H102.735Z" fill="#B1BEFF"/>
<path d="M36.992 18.58V18.28H36.692V18.58H36.992ZM40.576 18.58L40.8748 18.5528L40.85 18.28H40.576V18.58ZM43.856 17.636L43.8682 17.3362L43.8651 17.3361L43.856 17.636ZM42.272 17.588L42.2622 17.8878L42.2629 17.8879L42.272 17.588ZM49.568 14.116V14.416H49.868V14.116H49.568ZM46.032 14.116L45.7354 14.1609L45.774 14.416H46.032V14.116ZM42.896 14.996L42.8832 15.2957L42.8844 15.2958L42.896 14.996ZM44.544 15.06L44.5564 14.7603L44.5556 14.7602L44.544 15.06ZM43.68 22.408H43.216V23.008H43.68V22.408ZM43.216 22.408C40.4624 22.408 38.9956 21.7839 38.2159 21.0479C37.4415 20.3168 37.292 19.4246 37.292 18.756H36.692C36.692 19.5114 36.8625 20.5952 37.8041 21.4841C38.7404 22.3681 40.3856 23.008 43.216 23.008V22.408ZM37.292 18.756V18.58H36.692V18.756H37.292ZM36.992 18.88H40.576V18.28H36.992V18.88ZM40.2772 18.6072C40.3034 18.8948 40.3814 19.4129 40.8385 19.8507C41.2937 20.2866 42.0704 20.592 43.376 20.592V19.992C42.1536 19.992 41.5543 19.7054 41.2535 19.4173C40.9546 19.1311 40.8966 18.7932 40.8748 18.5528L40.2772 18.6072ZM43.376 20.592H43.488V19.992H43.376V20.592ZM43.488 20.592C44.7431 20.592 45.5208 20.4086 45.9888 20.0847C46.49 19.7376 46.588 19.2667 46.588 18.868H45.988C45.988 19.1573 45.926 19.3984 45.6472 19.5913C45.3352 19.8074 44.7129 19.992 43.488 19.992V20.592ZM46.588 18.868C46.588 18.6567 46.554 18.4432 46.451 18.2448C46.3465 18.0435 46.1826 17.8801 45.9595 17.7519C45.5301 17.5052 44.8585 17.3765 43.8682 17.3362L43.8438 17.9358C44.8215 17.9755 45.3659 18.1028 45.6605 18.2721C45.7994 18.3519 45.8745 18.4365 45.9185 18.5212C45.964 18.6088 45.988 18.7193 45.988 18.868H46.588ZM43.8651 17.3361L42.2811 17.2881L42.2629 17.8879L43.8469 17.9359L43.8651 17.3361ZM42.2818 17.2882C40.3615 17.2252 39.1466 16.8126 38.4172 16.24C37.701 15.6778 37.42 14.9353 37.42 14.116H36.82C36.82 15.0887 37.163 16.0182 38.0468 16.712C38.9174 17.3954 40.2785 17.8228 42.2622 17.8878L42.2818 17.2882ZM37.42 14.116V13.972H36.82V14.116H37.42ZM37.42 13.972C37.42 13.1016 37.6488 12.3284 38.412 11.756C39.1977 11.1667 40.5976 10.752 43.04 10.752V10.152C40.5544 10.152 38.9943 10.5693 38.052 11.276C37.0872 11.9996 36.82 12.9864 36.82 13.972H37.42ZM43.04 10.752H43.584V10.152H43.04V10.752ZM43.584 10.752C46.1912 10.752 47.6032 11.2297 48.3616 11.8415C49.1015 12.4383 49.268 13.2041 49.268 13.94H49.868C49.868 13.1079 49.6745 12.1297 48.7384 11.3745C47.8208 10.6343 46.2408 10.152 43.584 10.152V10.752ZM49.268 13.94V14.116H49.868V13.94H49.268ZM49.568 13.816H46.032V14.416H49.568V13.816ZM46.3286 14.0711C46.2826 13.7675 46.1675 13.3458 45.7034 13.0172C45.2587 12.7023 44.5363 12.504 43.36 12.504V13.104C44.4877 13.104 45.0613 13.2977 45.3566 13.5068C45.6325 13.7022 45.7014 13.9365 45.7354 14.1609L46.3286 14.0711ZM43.36 12.504H43.2V13.104H43.36V12.504ZM43.2 12.504C42.1392 12.504 41.4291 12.6022 40.9766 12.8144C40.7424 12.9243 40.5635 13.0709 40.4467 13.2615C40.3303 13.4514 40.292 13.6582 40.292 13.86H40.892C40.892 13.7338 40.9157 13.6446 40.9583 13.575C41.0005 13.5061 41.0776 13.4297 41.2314 13.3576C41.5549 13.2058 42.1488 13.104 43.2 13.104V12.504ZM40.292 13.86C40.292 14.0476 40.3255 14.242 40.425 14.4257C40.5252 14.6107 40.6809 14.7636 40.8917 14.8856C41.2995 15.1217 41.9371 15.2553 42.8832 15.2957L42.9088 14.6963C41.9829 14.6567 41.4685 14.5263 41.1923 14.3664C41.0611 14.2904 40.9918 14.2123 40.9525 14.1398C40.9125 14.066 40.892 13.9764 40.892 13.86H40.292ZM42.8844 15.2958L44.5324 15.3598L44.5556 14.7602L42.9076 14.6962L42.8844 15.2958ZM44.5316 15.3597C46.6325 15.447 47.8713 15.8312 48.5824 16.3813C49.2708 16.9138 49.508 17.6373 49.508 18.548H50.108C50.108 17.5227 49.8332 16.5902 48.9496 15.9067C48.0887 15.2408 46.6955 14.849 44.5564 14.7603L44.5316 15.3597ZM49.508 18.548V18.74H50.108V18.548H49.508ZM49.508 18.74C49.508 19.5674 49.3193 20.4597 48.5421 21.1543C47.7554 21.8574 46.3112 22.408 43.68 22.408V23.008C46.3768 23.008 47.9966 22.4466 48.9419 21.6017C49.8967 20.7483 50.108 19.6566 50.108 18.74H49.508ZM66.3969 14.692V14.992H66.6969V14.692H66.3969ZM62.9889 14.692L62.7124 14.8084L62.7897 14.992H62.9889V14.692ZM62.9089 18.132L63.2061 18.1725L63.2526 17.832H62.9089V18.132ZM59.6769 18.132H59.3769V18.432H59.6769V18.132ZM59.6769 16.004V15.704H59.3769V16.004H59.6769ZM66.5409 16.004H66.8409V15.704H66.5409V16.004ZM66.5409 22.5V22.8H66.8409V22.5H66.5409ZM63.9169 22.5L63.6187 22.5331L63.6484 22.8H63.9169V22.5ZM63.5169 20.852L63.7896 20.727L63.5813 20.2725L63.2782 20.6702L63.5169 20.852ZM59.2129 22.376H58.9569V22.976H59.2129V22.376ZM58.9569 22.376C56.3987 22.376 54.7612 21.5789 53.7611 20.4982C52.7555 19.4117 52.3609 18.0026 52.3609 16.724H51.7609C51.7609 18.1174 52.1903 19.6843 53.3207 20.9058C54.4565 22.1331 56.2671 22.976 58.9569 22.976V22.376ZM52.3609 16.724V16.292H51.7609V16.724H52.3609ZM52.3609 16.292C52.3609 15.084 52.7283 13.6994 53.7271 12.6197C54.7204 11.546 56.3731 10.736 59.0209 10.736V10.136C56.2446 10.136 54.4174 10.99 53.2867 12.2123C52.1615 13.4286 51.7609 14.972 51.7609 16.292H52.3609ZM59.0209 10.736H59.5649V10.136H59.0209V10.736ZM59.5649 10.736C62.1179 10.736 63.753 11.2921 64.7427 12.0484C65.725 12.799 66.0969 13.7651 66.0969 14.66H66.6969C66.6969 13.5869 66.2447 12.441 65.107 11.5716C63.9768 10.7079 62.1958 10.136 59.5649 10.136V10.736ZM66.0969 14.66V14.692H66.6969V14.66H66.0969ZM66.3969 14.392H62.9889V14.992H66.3969V14.392ZM63.2654 14.5756C63.1952 14.4089 63.0193 13.9503 62.4281 13.5463C61.8449 13.1477 60.8915 12.824 59.3089 12.824V13.424C60.8143 13.424 61.6369 13.7323 62.0896 14.0417C62.5344 14.3457 62.6546 14.6711 62.7124 14.8084L63.2654 14.5756ZM59.3089 12.824C57.7886 12.824 56.7448 13.2532 56.0829 13.9398C55.4239 14.6234 55.1849 15.5192 55.1849 16.372H55.7849C55.7849 15.6248 55.9939 14.8966 56.5149 14.3562C57.0329 13.8188 57.9012 13.424 59.3089 13.424V12.824ZM55.1849 16.372V16.58H55.7849V16.372H55.1849ZM55.1849 16.58C55.1849 17.4161 55.4518 18.3468 56.1299 19.071C56.813 19.8007 57.8824 20.288 59.4209 20.288V19.688C58.0153 19.688 57.1168 19.2473 56.5679 18.661C56.0139 18.0692 55.7849 17.2959 55.7849 16.58H55.1849ZM59.4209 20.288C62.3693 20.288 63.1356 18.69 63.2061 18.1725L62.6116 18.0915C62.5862 18.278 62.1045 19.688 59.4209 19.688V20.288ZM62.9089 17.832H59.6769V18.432H62.9089V17.832ZM59.9769 18.132V16.004H59.3769V18.132H59.9769ZM59.6769 16.304H66.5409V15.704H59.6769V16.304ZM66.2409 16.004V22.5H66.8409V16.004H66.2409ZM66.5409 22.2H63.9169V22.8H66.5409V22.2ZM64.215 22.4669C64.1894 22.2361 64.131 21.9081 64.0571 21.5901C63.9843 21.2766 63.8909 20.9479 63.7896 20.727L63.2442 20.977C63.3189 21.1401 63.4015 21.4194 63.4727 21.7259C63.5428 22.0279 63.5963 22.3319 63.6187 22.5331L64.215 22.4669ZM63.2782 20.6702C63.0562 20.9616 61.8872 22.376 59.2129 22.376V22.976C62.1385 22.976 63.4655 21.4144 63.7555 21.0338L63.2782 20.6702ZM69.612 10.596V10.296H69.312V10.596H69.612ZM80.508 10.596H80.808V10.296H80.508V10.596ZM80.508 13.188V13.488H80.808V13.188H80.508ZM72.86 13.188V12.888H72.56V13.188H72.86ZM72.86 15.124H72.56V15.424H72.86V15.124ZM80.268 15.124H80.568V14.824H80.268V15.124ZM80.268 17.812V18.112H80.568V17.812H80.268ZM72.86 17.812V17.512H72.56V17.812H72.86ZM72.86 19.876H72.56V20.176H72.86V19.876ZM80.604 19.876H80.904V19.576H80.604V19.876ZM80.604 22.5V22.8H80.904V22.5H80.604ZM69.612 22.5H69.312V22.8H69.612V22.5ZM69.612 10.896H80.508V10.296H69.612V10.896ZM80.208 10.596V13.188H80.808V10.596H80.208ZM80.508 12.888H72.86V13.488H80.508V12.888ZM72.56 13.188V15.124H73.16V13.188H72.56ZM72.86 15.424H80.268V14.824H72.86V15.424ZM79.968 15.124V17.812H80.568V15.124H79.968ZM80.268 17.512H72.86V18.112H80.268V17.512ZM72.56 17.812V19.876H73.16V17.812H72.56ZM72.86 20.176H80.604V19.576H72.86V20.176ZM80.304 19.876V22.5H80.904V19.876H80.304ZM80.604 22.2H69.612V22.8H80.604V22.2ZM69.912 22.5V10.596H69.312V22.5H69.912ZM91.861 17.844V18.144H92.3231L92.135 17.7219L91.861 17.844ZM89.701 12.996L89.975 12.8739L89.6969 12.2496L89.4256 12.8769L89.701 12.996ZM87.605 17.844L87.3296 17.7249L87.1485 18.144H87.605V17.844ZM93.941 22.5L93.6666 22.6213L93.7456 22.8H93.941V22.5ZM92.965 20.292L93.2394 20.1707L93.1604 19.992H92.965V20.292ZM86.533 20.292V19.992H86.3363L86.2579 20.1724L86.533 20.292ZM85.573 22.5V22.8H85.7697L85.8481 22.6196L85.573 22.5ZM82.261 22.5L81.9868 22.3784L81.7997 22.8H82.261V22.5ZM87.541 10.596V10.296H87.3459L87.2668 10.4744L87.541 10.596ZM91.957 10.596L92.2292 10.4698L92.1486 10.296H91.957V10.596ZM97.477 22.5V22.8H97.9468L97.7492 22.3738L97.477 22.5ZM92.135 17.7219L89.975 12.8739L89.427 13.1181L91.587 17.9661L92.135 17.7219ZM89.4256 12.8769L87.3296 17.7249L87.8804 17.9631L89.9764 13.1151L89.4256 12.8769ZM87.605 18.144H91.861V17.544H87.605V18.144ZM94.2154 22.3787L93.2394 20.1707L92.6906 20.4133L93.6666 22.6213L94.2154 22.3787ZM92.965 19.992H86.533V20.592H92.965V19.992ZM86.2579 20.1724L85.2979 22.3804L85.8481 22.6196L86.8081 20.4116L86.2579 20.1724ZM85.573 22.2H82.261V22.8H85.573V22.2ZM82.5352 22.6216L87.8152 10.7176L87.2668 10.4744L81.9868 22.3784L82.5352 22.6216ZM87.541 10.896H91.957V10.296H87.541V10.896ZM91.6848 10.7222L97.2048 22.6262L97.7492 22.3738L92.2292 10.4698L91.6848 10.7222ZM97.477 22.2H93.941V22.8H97.477V22.2ZM102.735 18.692V18.392H102.435V18.692H102.735ZM102.735 22.5V22.8H103.035V22.5H102.735ZM99.4395 22.5H99.1395V22.8H99.4395V22.5ZM99.4395 10.596V10.296H99.1395V10.596H99.4395ZM102.735 13.252V12.952H102.435V13.252H102.735ZM102.735 16.036H102.435V16.336H102.735V16.036ZM107.503 18.392H102.735V18.992H107.503V18.392ZM102.435 18.692V22.5H103.035V18.692H102.435ZM102.735 22.2H99.4395V22.8H102.735V22.2ZM99.7395 22.5V10.596H99.1395V22.5H99.7395ZM99.4395 10.896H107.503V10.296H99.4395V10.896ZM107.503 10.896C109.347 10.896 110.491 11.3009 111.175 11.9289C111.852 12.5517 112.131 13.4441 112.131 14.548H112.731C112.731 13.3479 112.427 12.2643 111.58 11.4871C110.74 10.7151 109.42 10.296 107.503 10.296V10.896ZM112.131 14.548V14.724H112.731V14.548H112.131ZM112.131 14.724C112.131 15.7997 111.843 16.6988 111.156 17.3337C110.465 17.9728 109.319 18.392 107.503 18.392V18.992C109.4 18.992 110.718 18.5552 111.563 17.7743C112.412 16.9892 112.731 15.9043 112.731 14.724H112.131ZM102.435 13.252V16.036H103.035V13.252H102.435ZM102.735 16.336H107.263V15.736H102.735V16.336ZM107.263 16.336C107.907 16.336 108.423 16.2016 108.782 15.9055C109.152 15.6007 109.307 15.1653 109.307 14.676H108.707C108.707 15.0347 108.599 15.2793 108.401 15.4425C108.192 15.6144 107.836 15.736 107.263 15.736V16.336ZM109.307 14.676V14.612H108.707V14.676H109.307ZM109.307 14.612C109.307 14.1293 109.151 13.6952 108.783 13.3893C108.425 13.0912 107.909 12.952 107.263 12.952V13.552C107.834 13.552 108.19 13.6768 108.4 13.8507C108.6 14.0168 108.707 14.2627 108.707 14.612H109.307ZM107.263 12.952H102.735V13.552H107.263V12.952Z" fill="black" mask="url(#path-2-outside-1_522_167)"/>
<defs>
<clipPath id="clip0_522_167">
<rect width="28" height="32" fill="white"/>
</clipPath>
</defs>
</svg>
