<svg width="422" height="491" viewBox="0 0 422 491" fill="none" xmlns="http://www.w3.org/2000/svg">
<path d="M201.95 310.05C198.363 308.117 194.88 306.2 191.5 304.3C190.882 303.955 190.367 303.449 190.008 302.836C189.65 302.222 189.46 301.523 189.46 300.81L189.45 11.9602C189.45 11.2475 189.643 10.5482 190.009 9.93696C190.376 9.32573 190.901 8.82563 191.53 8.49017L205.77 0.820166C206.278 0.54728 206.848 0.407009 207.426 0.412251C208.005 0.417493 208.573 0.568081 209.08 0.850167L227.24 11.0602C227.85 11.4028 228.357 11.9021 228.711 12.5066C229.064 13.1111 229.25 13.7992 229.25 14.5002V297.7C229.25 298.446 229.056 299.178 228.686 299.826C228.315 300.473 227.783 301.012 227.14 301.39C220.967 305.03 214.997 308.547 209.23 311.94C206.65 313.46 204.12 311.22 201.95 310.05ZM224.64 15.2802C224.641 15.14 224.604 15.0022 224.534 14.881C224.463 14.7597 224.362 14.6594 224.24 14.5902L207.79 5.37017C207.674 5.30473 207.544 5.26951 207.411 5.26776C207.279 5.26601 207.147 5.2978 207.03 5.36017L194.42 12.1002C194.294 12.1667 194.189 12.266 194.115 12.3874C194.041 12.5089 194.002 12.648 194 12.7902V300.02C193.999 300.163 194.036 300.304 194.108 300.427C194.181 300.55 194.285 300.651 194.41 300.72L206.89 307.58C207.01 307.646 207.145 307.68 207.281 307.678C207.418 307.676 207.552 307.639 207.67 307.57L224.25 297.79C224.369 297.721 224.467 297.621 224.535 297.502C224.604 297.383 224.64 297.248 224.64 297.11V15.2802Z" fill="black"/>
<path d="M224.64 15.2802V297.11C224.64 297.248 224.604 297.383 224.535 297.502C224.467 297.621 224.369 297.721 224.25 297.79L207.67 307.57C207.552 307.639 207.418 307.676 207.281 307.678C207.145 307.68 207.01 307.646 206.89 307.58L194.41 300.72C194.285 300.651 194.181 300.55 194.108 300.427C194.036 300.304 193.999 300.163 194 300.02V12.7902C194.002 12.648 194.041 12.5089 194.115 12.3874C194.189 12.266 194.294 12.1667 194.42 12.1002L207.03 5.36017C207.147 5.2978 207.279 5.26601 207.411 5.26776C207.544 5.26951 207.674 5.30473 207.79 5.37017L224.24 14.5902C224.362 14.6594 224.463 14.7597 224.534 14.881C224.604 15.0022 224.641 15.14 224.64 15.2802Z" fill="#FAD883"/>
<path d="M125.67 121.76C125.203 121.653 124.757 121.723 124.33 121.97C104.137 133.63 83.9368 145.314 63.7301 157.02C63.5023 157.151 63.2442 157.219 62.9824 157.217C62.7205 157.215 62.4643 157.144 62.2401 157.01L1.29009 121.44C1.14958 121.359 1.02906 121.248 0.937362 121.114C0.845661 120.981 0.785091 120.829 0.760085 120.67C0.680085 120.13 0.940088 119.687 1.54009 119.34C54.7468 88.4402 107.99 57.5235 161.27 26.5902C161.602 26.3944 161.985 26.3005 162.37 26.3202C163.057 26.3602 163.4 26.7268 163.4 27.4202C163.253 111.04 163.207 196.947 163.26 285.14C163.26 285.338 163.209 285.533 163.111 285.706C163.013 285.878 162.871 286.022 162.701 286.123C162.53 286.224 162.336 286.278 162.138 286.281C161.939 286.285 161.744 286.236 161.57 286.14L127.08 266.66C126.828 266.517 126.619 266.309 126.473 266.058C126.327 265.807 126.25 265.521 126.25 265.23V122.47C126.251 122.306 126.194 122.145 126.088 122.016C125.983 121.887 125.835 121.797 125.67 121.76ZM130.32 120.41C130.688 121.107 130.88 121.876 130.88 122.65L130.87 263.06C130.87 263.387 131.013 263.63 131.3 263.79L158.05 278.91C158.122 278.95 158.202 278.971 158.284 278.97C158.366 278.97 158.447 278.947 158.518 278.906C158.588 278.864 158.647 278.805 158.688 278.734C158.729 278.663 158.75 278.582 158.75 278.5V33.8202C158.749 33.7713 158.735 33.7234 158.711 33.6813C158.686 33.6391 158.651 33.6041 158.61 33.5798C158.568 33.5555 158.522 33.5428 158.474 33.5428C158.427 33.5429 158.381 33.5558 158.34 33.5802L9.14009 120.19C9.09223 120.217 9.05241 120.256 9.02471 120.304C8.997 120.351 8.9824 120.405 8.9824 120.46C8.9824 120.515 8.997 120.569 9.02471 120.616C9.05241 120.664 9.09223 120.703 9.14009 120.73L62.5101 151.89C62.8234 152.07 63.1368 152.07 63.4501 151.89C82.8168 140.697 102.417 129.36 122.25 117.88C125.26 116.14 128.7 117.32 130.32 120.41Z" fill="black"/>
<path d="M293.9 122.56C293.753 122.853 293.68 123.25 293.68 123.75C293.64 170.204 293.62 216.407 293.62 262.36C293.62 262.714 293.47 262.977 293.17 263.15L260.47 282.27C260.283 282.379 260.071 282.437 259.855 282.438C259.639 282.439 259.426 282.383 259.239 282.275C259.051 282.168 258.895 282.013 258.786 281.826C258.678 281.639 258.62 281.426 258.62 281.21V30.9802C258.62 30.7156 258.712 30.4607 258.88 30.2602C259.28 29.7668 259.71 29.6502 260.17 29.9102C311.37 58.8368 363.78 88.4202 417.4 118.66C417.793 118.88 418.14 119.15 418.44 119.47C418.552 119.592 418.635 119.737 418.684 119.895C418.732 120.053 418.744 120.219 418.719 120.383C418.694 120.546 418.633 120.702 418.54 120.838C418.446 120.974 418.323 121.088 418.18 121.17L357.12 156.31C356.68 156.563 356.237 156.563 355.79 156.31L295.4 122.11C295.273 122.037 295.132 121.991 294.987 121.975C294.841 121.958 294.694 121.971 294.553 122.013C294.413 122.055 294.283 122.125 294.171 122.219C294.058 122.314 293.966 122.429 293.9 122.56ZM410.41 119.98L263.69 37.1302C263.31 36.9168 263.12 37.0268 263.12 37.4602V275C263.12 275.042 263.131 275.084 263.151 275.121C263.172 275.158 263.203 275.188 263.239 275.21C263.276 275.231 263.317 275.242 263.36 275.242C263.402 275.242 263.443 275.231 263.48 275.21L288.42 260.65C288.887 260.384 289.12 259.984 289.12 259.45C289.167 215.104 289.153 170.15 289.08 124.59C289.073 123.323 289.25 122.157 289.61 121.09C290.73 117.75 294.82 116.53 297.83 118.24C317.35 129.307 336.73 140.277 355.97 151.15C356.29 151.33 356.607 151.33 356.92 151.15L410.41 120.37C410.444 120.352 410.473 120.325 410.493 120.291C410.513 120.258 410.523 120.22 410.523 120.18C410.523 120.141 410.513 120.101 410.493 120.066C410.473 120.031 410.444 120.001 410.41 119.98Z" fill="black"/>
<path d="M130.32 120.41C128.7 117.32 125.26 116.14 122.25 117.88C102.417 129.36 82.8168 140.697 63.4501 151.89C63.1368 152.07 62.8234 152.07 62.5101 151.89L9.14009 120.73C9.09223 120.703 9.05241 120.664 9.02471 120.616C8.997 120.569 8.9824 120.515 8.9824 120.46C8.9824 120.405 8.997 120.351 9.02471 120.304C9.05241 120.256 9.09223 120.217 9.14009 120.19L158.34 33.5802C158.381 33.5558 158.427 33.5429 158.474 33.5428C158.522 33.5428 158.568 33.5555 158.61 33.5798C158.651 33.6041 158.686 33.6391 158.711 33.6813C158.735 33.7234 158.749 33.7713 158.75 33.8202V278.5C158.75 278.582 158.729 278.663 158.688 278.734C158.647 278.805 158.588 278.864 158.518 278.906C158.447 278.947 158.366 278.97 158.284 278.97C158.202 278.971 158.122 278.95 158.05 278.91L131.3 263.79C131.013 263.63 130.87 263.387 130.87 263.06L130.88 122.65C130.88 121.876 130.688 121.107 130.32 120.41Z" fill="#FAD883"/>
<path d="M263.69 37.1302L410.41 119.98C410.444 120.001 410.473 120.031 410.493 120.066C410.513 120.101 410.523 120.141 410.523 120.18C410.523 120.22 410.513 120.258 410.493 120.291C410.473 120.325 410.444 120.352 410.41 120.37L356.92 151.15C356.607 151.33 356.29 151.33 355.97 151.15C336.73 140.277 317.35 129.307 297.83 118.24C294.82 116.53 290.73 117.75 289.61 121.09C289.25 122.157 289.073 123.323 289.08 124.59C289.153 170.15 289.167 215.104 289.12 259.45C289.12 259.984 288.887 260.384 288.42 260.65L263.48 275.21C263.443 275.231 263.402 275.242 263.36 275.242C263.317 275.242 263.276 275.231 263.239 275.21C263.203 275.188 263.172 275.158 263.151 275.121C263.131 275.084 263.12 275.042 263.12 275V37.4602C263.12 37.0268 263.31 36.9168 263.69 37.1302Z" fill="#FAD883"/>
<path d="M64.7101 332.75C64.7168 332.93 64.8834 333.117 65.2101 333.31L209.27 416.91C209.59 417.097 209.75 417.373 209.75 417.74V489.09C209.75 489.339 209.681 489.584 209.55 489.8C209.117 490.493 208.617 490.677 208.05 490.35C139.597 450.543 71.2568 410.803 3.03009 371.13C2.58342 370.87 2.35675 370.48 2.35009 369.96L0.0500875 127.54C0.048314 127.31 0.107608 127.084 0.221917 126.884C0.336226 126.685 0.501456 126.519 0.700741 126.404C0.900026 126.289 1.12623 126.229 1.35626 126.23C1.58629 126.231 1.81191 126.293 2.01009 126.41L62.2201 161.84C62.3391 161.91 62.4384 162.01 62.5084 162.131C62.5783 162.252 62.6168 162.389 62.6201 162.53L64.7101 332.75ZM204.76 419.58C157.66 392.227 110.79 365.023 64.1501 337.97C61.7501 336.58 60.1801 335.21 60.1401 332.48C59.4668 276.627 58.7801 220.87 58.0801 165.21C58.0802 165.052 58.0386 164.897 57.9597 164.76C57.8807 164.623 57.767 164.509 57.6301 164.43L4.96009 133.44C4.92992 133.423 4.89572 133.414 4.86088 133.413C4.82604 133.413 4.79177 133.422 4.76146 133.439C4.73115 133.457 4.70585 133.481 4.68807 133.511C4.67029 133.541 4.66065 133.575 4.66009 133.61L6.90009 367.51C6.90009 367.903 7.07009 368.197 7.41009 368.39L204.62 483.07C204.96 483.27 205.13 483.173 205.13 482.78V420.22C205.13 419.933 205.007 419.72 204.76 419.58Z" fill="black"/>
<path d="M358.49 330.69C358.603 330.623 358.696 330.528 358.761 330.414C358.825 330.3 358.86 330.171 358.86 330.04L358.6 163.38C358.6 163.148 358.661 162.921 358.775 162.721C358.889 162.521 359.053 162.356 359.25 162.24L419.91 126.62C420.097 126.511 420.311 126.455 420.528 126.459C420.745 126.462 420.956 126.525 421.14 126.64C421.547 126.894 421.75 127.254 421.75 127.72C421.75 202.247 421.75 281.593 421.75 365.76C421.75 365.989 421.691 366.214 421.577 366.414C421.463 366.613 421.299 366.781 421.1 366.9L214.26 490.43C214.089 490.533 213.897 490.596 213.698 490.615C213.499 490.634 213.298 490.609 213.11 490.54C212.61 490.36 212.36 490.057 212.36 489.63C212.467 466.437 212.587 442.737 212.72 418.53C212.72 418.421 212.746 418.316 212.795 418.224C212.844 418.133 212.915 418.059 213 418.01L358.49 330.69ZM217.53 483.16L416.73 364.19C416.852 364.117 416.953 364.015 417.023 363.892C417.093 363.769 417.13 363.631 417.13 363.49V134.2C417.13 133.76 416.94 133.65 416.56 133.87L363.71 164.93C363.403 165.11 363.25 165.38 363.25 165.74C363.257 217.974 363.31 272.107 363.41 328.14C363.41 331.1 363.03 333.28 360.55 334.76C312.517 363.587 264.9 392.173 217.7 420.52C217.569 420.599 217.461 420.712 217.386 420.847C217.31 420.982 217.27 421.134 217.27 421.29L216.96 482.84C216.96 483.28 217.15 483.387 217.53 483.16Z" fill="black"/>
<path d="M204.76 419.58C205.007 419.72 205.13 419.933 205.13 420.22V482.78C205.13 483.173 204.96 483.27 204.62 483.07L7.41009 368.39C7.07009 368.197 6.90009 367.903 6.90009 367.51L4.66009 133.61C4.66065 133.575 4.67029 133.541 4.68807 133.511C4.70585 133.481 4.73115 133.457 4.76146 133.439C4.79177 133.422 4.82604 133.413 4.86088 133.413C4.89572 133.414 4.92992 133.423 4.96009 133.44L57.6301 164.43C57.767 164.509 57.8807 164.623 57.9597 164.76C58.0386 164.897 58.0802 165.052 58.0801 165.21C58.7801 220.87 59.4668 276.627 60.1401 332.48C60.1801 335.21 61.7501 336.58 64.1501 337.97C110.79 365.023 157.66 392.227 204.76 419.58Z" fill="#B1BEFF"/>
<path d="M416.73 364.19L217.53 483.16C217.15 483.387 216.96 483.28 216.96 482.84L217.27 421.29C217.27 421.134 217.31 420.982 217.386 420.847C217.461 420.712 217.569 420.599 217.7 420.52C264.9 392.173 312.517 363.587 360.55 334.76C363.03 333.28 363.41 331.1 363.41 328.14C363.31 272.107 363.257 217.974 363.25 165.74C363.25 165.38 363.403 165.11 363.71 164.93L416.56 133.87C416.94 133.65 417.13 133.76 417.13 134.2V363.49C417.13 363.631 417.093 363.769 417.023 363.892C416.953 364.015 416.852 364.117 416.73 364.19Z" fill="#B1BEFF"/>
<path d="M209.69 394.06L210.85 393.97C210.959 393.963 211.061 393.914 211.135 393.834C211.209 393.754 211.25 393.649 211.25 393.54V351.25C211.251 351.175 211.272 351.101 211.31 351.036C211.349 350.971 211.404 350.917 211.47 350.88L308.18 296.64C308.246 296.603 308.301 296.55 308.34 296.485C308.378 296.42 308.399 296.346 308.4 296.27L308.37 191.57C308.369 191.493 308.389 191.417 308.428 191.35C308.467 191.283 308.523 191.228 308.59 191.19L349.43 168.87C349.496 168.833 349.57 168.814 349.646 168.815C349.721 168.816 349.795 168.837 349.86 168.876C349.924 168.914 349.978 168.969 350.015 169.035C350.052 169.1 350.071 169.175 350.07 169.25L349.97 318.11C349.969 318.186 349.948 318.26 349.91 318.325C349.871 318.39 349.816 318.443 349.75 318.48L211.48 396.48C211.416 396.516 211.344 396.535 211.27 396.535C211.197 396.535 211.124 396.516 211.06 396.48L73.9601 321.26C73.8941 321.223 73.8391 321.17 73.8005 321.105C73.7618 321.04 73.741 320.966 73.7401 320.89L72.0301 168.99C72.0292 168.915 72.0482 168.84 72.0852 168.775C72.1221 168.709 72.1757 168.654 72.2405 168.616C72.3054 168.577 72.3792 168.556 72.4546 168.555C72.53 168.554 72.6043 168.573 72.6701 168.61L113.03 191.19C113.096 191.227 113.151 191.281 113.19 191.346C113.228 191.411 113.249 191.485 113.25 191.56L114.66 297.26C114.661 297.336 114.682 297.41 114.72 297.475C114.759 297.54 114.814 297.593 114.88 297.63L209.17 349.46C209.238 349.498 209.294 349.553 209.332 349.62C209.371 349.687 209.391 349.763 209.39 349.84L209.22 393.63C209.22 393.69 209.232 393.75 209.256 393.805C209.28 393.859 209.316 393.909 209.36 393.949C209.404 393.99 209.456 394.021 209.513 394.04C209.57 394.059 209.63 394.066 209.69 394.06ZM179.56 338.34C157.52 326.3 135.303 314.097 112.91 301.73C111.063 300.71 110.123 299.17 110.09 297.11C109.637 263.397 109.183 229.157 108.73 194.39C108.73 194.275 108.7 194.162 108.641 194.064C108.583 193.965 108.5 193.884 108.4 193.83L77.2001 176.38C76.8467 176.18 76.6734 176.284 76.6801 176.69L78.2701 317.91C78.2701 318.25 78.4201 318.5 78.7201 318.66L204.05 387.43C204.517 387.683 204.75 387.543 204.75 387.01V352.93C204.75 352.517 204.57 352.21 204.21 352.01C196.163 347.483 187.947 342.927 179.56 338.34ZM312.87 297.38C312.41 298.91 311.72 299.89 310.33 300.67C278.67 318.443 247.297 336.037 216.21 353.45C215.903 353.623 215.75 353.887 215.75 354.24V388.23C215.75 388.63 215.923 388.733 216.27 388.54L344.81 316.02C345.17 315.82 345.35 315.513 345.35 315.1L345.53 176.78C345.53 176.719 345.514 176.659 345.484 176.605C345.455 176.552 345.412 176.507 345.36 176.476C345.308 176.444 345.25 176.427 345.19 176.426C345.131 176.425 345.072 176.44 345.02 176.47L313.29 193.82C313.077 193.934 312.97 194.11 312.97 194.35L313.01 296.37C313.01 296.71 312.963 297.047 312.87 297.38Z" fill="black"/>
<path d="M179.56 338.34C187.947 342.927 196.163 347.483 204.21 352.01C204.57 352.21 204.75 352.517 204.75 352.93V387.01C204.75 387.543 204.517 387.683 204.05 387.43L78.7201 318.66C78.4201 318.5 78.2701 318.25 78.2701 317.91L76.6801 176.69C76.6734 176.284 76.8467 176.18 77.2001 176.38L108.4 193.83C108.5 193.884 108.583 193.965 108.641 194.064C108.7 194.162 108.73 194.275 108.73 194.39C109.183 229.157 109.637 263.397 110.09 297.11C110.123 299.17 111.063 300.71 112.91 301.73C135.303 314.097 157.52 326.3 179.56 338.34Z" fill="#B1BEFF"/>
<path d="M312.87 297.38C312.963 297.047 313.01 296.71 313.01 296.37L312.97 194.35C312.97 194.11 313.077 193.934 313.29 193.82L345.02 176.47C345.072 176.44 345.131 176.425 345.19 176.426C345.25 176.427 345.308 176.444 345.36 176.476C345.412 176.507 345.455 176.552 345.484 176.605C345.514 176.659 345.53 176.719 345.53 176.78L345.35 315.1C345.35 315.513 345.17 315.82 344.81 316.02L216.27 388.54C215.923 388.733 215.75 388.63 215.75 388.23V354.24C215.75 353.887 215.903 353.623 216.21 353.45C247.297 336.037 278.67 318.443 310.33 300.67C311.72 299.89 312.41 298.91 312.87 297.38Z" fill="#B1BEFF"/>
</svg>
